<mxfile host="Electron" modified="2024-10-08T07:59:14.149Z" agent="Mozilla/5.0 (Windows NT 10.0; Win64; x64) AppleWebKit/537.36 (KHTML, like Gecko) draw.io/21.6.8 Chrome/114.0.5735.289 Electron/25.5.0 Safari/537.36" etag="Ftob2q8g3IVY4Upp5sET" version="21.6.8" type="device">
  <diagram name="Page-1" id="KXfVVAW84HboSd04uV4A">
    <mxGraphModel dx="864" dy="516" grid="1" gridSize="10" guides="1" tooltips="1" connect="1" arrows="1" fold="1" page="1" pageScale="1" pageWidth="827" pageHeight="1169" math="0" shadow="0">
      <root>
        <mxCell id="0" />
        <mxCell id="1" parent="0" />
        <mxCell id="JgbIfaUbv3gOfz3bgXuj-1" value="" style="swimlane;startSize=0;" parent="1" vertex="1">
          <mxGeometry x="314" y="5" width="200" height="735" as="geometry" />
        </mxCell>
        <mxCell id="JgbIfaUbv3gOfz3bgXuj-15" value="&lt;p dir=&quot;RTL&quot; class=&quot;MsoNormal&quot;&gt;التحقق من أسماء اللاعبين&lt;span style=&quot;font-family:&amp;quot;Arial&amp;quot;,sans-serif;mso-ascii-font-family:Calibri;&lt;br/&gt;mso-ascii-theme-font:minor-latin;mso-hansi-font-family:Calibri;mso-hansi-theme-font:&lt;br/&gt;minor-latin;mso-bidi-theme-font:minor-bidi&quot; lang=&quot;AR-SA&quot;&gt;&lt;/span&gt;&lt;/p&gt;" style="ellipse;whiteSpace=wrap;html=1;" parent="JgbIfaUbv3gOfz3bgXuj-1" vertex="1">
          <mxGeometry x="40" y="225" width="120" height="80" as="geometry" />
        </mxCell>
        <mxCell id="JgbIfaUbv3gOfz3bgXuj-14" value="&lt;p dir=&quot;RTL&quot; class=&quot;MsoNormal&quot;&gt;&lt;span dir=&quot;RTL&quot;&gt;&lt;/span&gt;&lt;span style=&quot;font-family:&amp;quot;Arial&amp;quot;,sans-serif;mso-ascii-font-family:Calibri;&lt;br/&gt;mso-ascii-theme-font:minor-latin;mso-hansi-font-family:Calibri;mso-hansi-theme-font:&lt;br/&gt;minor-latin&quot; lang=&quot;AR-SA&quot;&gt;&lt;span dir=&quot;RTL&quot;&gt;&lt;/span&gt;&lt;span dir=&quot;RTL&quot;&gt;&lt;/span&gt;&amp;nbsp;معالجة النقرات&lt;/span&gt;&lt;span style=&quot;font-family:&amp;quot;Arial&amp;quot;,sans-serif;mso-ascii-font-family:Calibri;mso-ascii-theme-font:&lt;br/&gt;minor-latin;mso-hansi-font-family:Calibri;mso-hansi-theme-font:minor-latin;&lt;br/&gt;mso-bidi-theme-font:minor-bidi&quot; lang=&quot;AR-SA&quot;&gt;&lt;/span&gt;&lt;/p&gt;" style="ellipse;whiteSpace=wrap;html=1;" parent="JgbIfaUbv3gOfz3bgXuj-1" vertex="1">
          <mxGeometry x="40" y="325" width="120" height="80" as="geometry" />
        </mxCell>
        <mxCell id="JgbIfaUbv3gOfz3bgXuj-13" value="&lt;p dir=&quot;RTL&quot; class=&quot;MsoNormal&quot;&gt;تحديث اللاعب&lt;span style=&quot;font-family:&amp;quot;Arial&amp;quot;,sans-serif;mso-ascii-font-family:Calibri;mso-ascii-theme-font:&lt;br/&gt;minor-latin;mso-hansi-font-family:Calibri;mso-hansi-theme-font:minor-latin;&lt;br/&gt;mso-bidi-theme-font:minor-bidi&quot; lang=&quot;AR-SA&quot;&gt;&lt;/span&gt;&lt;/p&gt;" style="ellipse;whiteSpace=wrap;html=1;" parent="JgbIfaUbv3gOfz3bgXuj-1" vertex="1">
          <mxGeometry x="40" y="425" width="120" height="80" as="geometry" />
        </mxCell>
        <mxCell id="JgbIfaUbv3gOfz3bgXuj-12" value="&lt;p dir=&quot;RTL&quot; class=&quot;MsoNormal&quot;&gt;التحقق من الفائز&lt;span style=&quot;font-family:&amp;quot;Arial&amp;quot;,sans-serif;mso-ascii-font-family:Calibri;&lt;br/&gt;mso-ascii-theme-font:minor-latin;mso-hansi-font-family:Calibri;mso-hansi-theme-font:&lt;br/&gt;minor-latin;mso-bidi-theme-font:minor-bidi&quot; lang=&quot;AR-SA&quot;&gt;&lt;/span&gt;&lt;/p&gt;" style="ellipse;whiteSpace=wrap;html=1;" parent="JgbIfaUbv3gOfz3bgXuj-1" vertex="1">
          <mxGeometry x="40" y="515" width="120" height="80" as="geometry" />
        </mxCell>
        <mxCell id="JgbIfaUbv3gOfz3bgXuj-10" value="&lt;p dir=&quot;RTL&quot; class=&quot;MsoNormal&quot;&gt;توفير خيار اللعب مرة أخرى&lt;span style=&quot;font-family:&amp;quot;Arial&amp;quot;,sans-serif;mso-ascii-font-family:Calibri;&lt;br/&gt;mso-ascii-theme-font:minor-latin;mso-hansi-font-family:Calibri;mso-hansi-theme-font:&lt;br/&gt;minor-latin;mso-bidi-theme-font:minor-bidi&quot; lang=&quot;AR-SA&quot;&gt;&lt;/span&gt;&lt;/p&gt;" style="ellipse;whiteSpace=wrap;html=1;" parent="JgbIfaUbv3gOfz3bgXuj-1" vertex="1">
          <mxGeometry x="40" y="615" width="120" height="80" as="geometry" />
        </mxCell>
        <mxCell id="JgbIfaUbv3gOfz3bgXuj-6" value="&lt;p dir=&quot;RTL&quot; class=&quot;MsoNormal&quot;&gt;إدخال أسماء اللاعبين&lt;span style=&quot;font-family:&amp;quot;Arial&amp;quot;,sans-serif;mso-ascii-font-family:Calibri;&lt;br/&gt;mso-ascii-theme-font:minor-latin;mso-hansi-font-family:Calibri;mso-hansi-theme-font:&lt;br/&gt;minor-latin;mso-bidi-theme-font:minor-bidi&quot; lang=&quot;AR-SA&quot;&gt;&lt;/span&gt;&lt;/p&gt;" style="ellipse;whiteSpace=wrap;html=1;" parent="JgbIfaUbv3gOfz3bgXuj-1" vertex="1">
          <mxGeometry x="40" y="135" width="120" height="80" as="geometry" />
        </mxCell>
        <mxCell id="JgbIfaUbv3gOfz3bgXuj-5" value="&lt;p dir=&quot;RTL&quot; class=&quot;MsoNormal&quot;&gt;&lt;span dir=&quot;RTL&quot;&gt;&lt;/span&gt;&lt;span style=&quot;font-family:&amp;quot;Arial&amp;quot;,sans-serif;mso-ascii-font-family:Calibri;&lt;br/&gt;mso-ascii-theme-font:minor-latin;mso-hansi-font-family:Calibri;mso-hansi-theme-font:&lt;br/&gt;minor-latin&quot; lang=&quot;AR-SA&quot;&gt;&lt;span dir=&quot;RTL&quot;&gt;&lt;/span&gt;&lt;span dir=&quot;RTL&quot;&gt;&lt;/span&gt;&amp;nbsp;اختيار وضع اللعبة&lt;/span&gt;&lt;span style=&quot;font-family:&amp;quot;Arial&amp;quot;,sans-serif;mso-ascii-font-family:Calibri;mso-ascii-theme-font:&lt;br/&gt;minor-latin;mso-hansi-font-family:Calibri;mso-hansi-theme-font:minor-latin;&lt;br/&gt;mso-bidi-theme-font:minor-bidi&quot; lang=&quot;AR-SA&quot;&gt;&lt;/span&gt;&lt;/p&gt;" style="ellipse;whiteSpace=wrap;html=1;" parent="JgbIfaUbv3gOfz3bgXuj-1" vertex="1">
          <mxGeometry x="40" y="35" width="120" height="80" as="geometry" />
        </mxCell>
        <mxCell id="JgbIfaUbv3gOfz3bgXuj-16" value="user" style="shape=umlActor;verticalLabelPosition=bottom;verticalAlign=top;html=1;outlineConnect=0;" parent="1" vertex="1">
          <mxGeometry x="60" y="480" width="30" height="60" as="geometry" />
        </mxCell>
        <mxCell id="JgbIfaUbv3gOfz3bgXuj-17" value="system" style="swimlane;whiteSpace=wrap;html=1;" parent="1" vertex="1">
          <mxGeometry x="710" y="500" width="100" height="60" as="geometry" />
        </mxCell>
        <mxCell id="JgbIfaUbv3gOfz3bgXuj-21" value="" style="endArrow=classic;html=1;rounded=0;entryX=1.008;entryY=0.363;entryDx=0;entryDy=0;entryPerimeter=0;" parent="1" target="JgbIfaUbv3gOfz3bgXuj-10" edge="1">
          <mxGeometry width="50" height="50" relative="1" as="geometry">
            <mxPoint x="770" y="560" as="sourcePoint" />
            <mxPoint x="440" y="530" as="targetPoint" />
          </mxGeometry>
        </mxCell>
        <mxCell id="JgbIfaUbv3gOfz3bgXuj-23" value="" style="endArrow=classic;html=1;rounded=0;entryX=0.983;entryY=0.375;entryDx=0;entryDy=0;entryPerimeter=0;" parent="1" target="JgbIfaUbv3gOfz3bgXuj-12" edge="1">
          <mxGeometry width="50" height="50" relative="1" as="geometry">
            <mxPoint x="710" y="540" as="sourcePoint" />
            <mxPoint x="440" y="530" as="targetPoint" />
          </mxGeometry>
        </mxCell>
        <mxCell id="JgbIfaUbv3gOfz3bgXuj-24" value="" style="endArrow=classic;html=1;rounded=0;entryX=1;entryY=0.5;entryDx=0;entryDy=0;" parent="1" target="JgbIfaUbv3gOfz3bgXuj-13" edge="1">
          <mxGeometry width="50" height="50" relative="1" as="geometry">
            <mxPoint x="710" y="540" as="sourcePoint" />
            <mxPoint x="440" y="530" as="targetPoint" />
          </mxGeometry>
        </mxCell>
        <mxCell id="JgbIfaUbv3gOfz3bgXuj-25" value="" style="endArrow=classic;html=1;rounded=0;entryX=1;entryY=0.5;entryDx=0;entryDy=0;" parent="1" target="JgbIfaUbv3gOfz3bgXuj-14" edge="1">
          <mxGeometry width="50" height="50" relative="1" as="geometry">
            <mxPoint x="710" y="550" as="sourcePoint" />
            <mxPoint x="440" y="530" as="targetPoint" />
          </mxGeometry>
        </mxCell>
        <mxCell id="JgbIfaUbv3gOfz3bgXuj-26" value="" style="endArrow=classic;html=1;rounded=0;entryX=0;entryY=0.5;entryDx=0;entryDy=0;" parent="1" source="JgbIfaUbv3gOfz3bgXuj-16" target="JgbIfaUbv3gOfz3bgXuj-5" edge="1">
          <mxGeometry width="50" height="50" relative="1" as="geometry">
            <mxPoint x="390" y="580" as="sourcePoint" />
            <mxPoint x="440" y="530" as="targetPoint" />
          </mxGeometry>
        </mxCell>
        <mxCell id="JgbIfaUbv3gOfz3bgXuj-27" value="" style="endArrow=classic;html=1;rounded=0;entryX=0;entryY=0.5;entryDx=0;entryDy=0;" parent="1" source="JgbIfaUbv3gOfz3bgXuj-16" target="JgbIfaUbv3gOfz3bgXuj-6" edge="1">
          <mxGeometry width="50" height="50" relative="1" as="geometry">
            <mxPoint x="390" y="580" as="sourcePoint" />
            <mxPoint x="440" y="530" as="targetPoint" />
          </mxGeometry>
        </mxCell>
        <mxCell id="JgbIfaUbv3gOfz3bgXuj-28" value="" style="endArrow=classic;html=1;rounded=0;exitX=0;exitY=0.75;exitDx=0;exitDy=0;entryX=0.983;entryY=0.375;entryDx=0;entryDy=0;entryPerimeter=0;" parent="1" source="JgbIfaUbv3gOfz3bgXuj-17" target="JgbIfaUbv3gOfz3bgXuj-15" edge="1">
          <mxGeometry width="50" height="50" relative="1" as="geometry">
            <mxPoint x="390" y="580" as="sourcePoint" />
            <mxPoint x="440" y="530" as="targetPoint" />
          </mxGeometry>
        </mxCell>
      </root>
    </mxGraphModel>
  </diagram>
</mxfile>
